<?xml version="1.0" encoding="UTF-8"?>
<svg id="Layer_1" data-name="Layer 1" xmlns="http://www.w3.org/2000/svg" viewBox="0 0 500 500">
  <defs>
    <style>
      .cls-1 {
        fill: #ff7262;
      }

      .cls-2 {
        fill: #a259ff;
      }

      .cls-3 {
        fill: #1abcfe;
      }

      .cls-4 {
        fill: #f24e1e;
      }

      .cls-5 {
        fill: #0acf83;
      }
    </style>
  </defs>
  <path class="cls-3" d="M250,250c0-46.04,36.39-83.32,81.25-83.32s81.25,37.25,81.25,83.32-36.36,83.32-81.25,83.32-81.25-37.25-81.25-83.32Z"/>
  <path class="cls-5" d="M87.5,416.68c0-46.04,36.39-83.36,81.25-83.36h81.25v83.36c0,46-36.39,83.32-81.25,83.32s-81.25-37.32-81.25-83.32Z"/>
  <path class="cls-1" d="M250,0v166.68h81.25c44.89,0,81.25-37.32,81.25-83.36S376.14,0,331.25,0h-81.25Z"/>
  <path class="cls-4" d="M87.5,83.32c0,46.04,36.39,83.36,81.25,83.36h81.25V0h-81.25C123.89,0,87.5,37.32,87.5,83.32Z"/>
  <path class="cls-2" d="M87.5,250c0,46.04,36.39,83.32,81.25,83.32h81.25v-166.64h-81.25c-44.86,0-81.25,37.25-81.25,83.32Z"/>
</svg>