<?xml version="1.0" encoding="UTF-8"?>
<svg id="Layer_1" data-name="Layer 1" xmlns="http://www.w3.org/2000/svg" viewBox="0 0 500 500">
  <defs>
    <style>
      .cls-1 {
        fill: #fff;
      }

      .cls-2 {
        fill: #191919;
      }
    </style>
  </defs>
  <circle class="cls-2" cx="250" cy="250" r="250"/>
  <path class="cls-1" d="M374.14,238.51l-112.65-112.64c-6.49-6.49-17.01-6.49-23.5,0,0,0,0,0,0,0l-23.38,23.39,29.67,29.67c7.12-2.42,14.99-.58,20.3,4.73,5.35,5.35,7.17,13.29,4.69,20.43l28.6,28.59c7.15-2.48,15.09-.66,20.44,4.69,7.72,7.72,7.72,20.23,0,27.95h0c-7.73,7.72-20.25,7.72-27.98,0-5.64-5.65-7.33-14.13-4.29-21.51l-26.67-26.67v70.19c9.79,4.84,13.8,16.69,8.97,26.48-.96,1.93-2.22,3.7-3.75,5.22-7.72,7.72-20.23,7.72-27.95,0h0c-7.72-7.72-7.72-20.24,0-27.96,0,0,0,0,0,0,1.85-1.85,4.05-3.32,6.47-4.32v-70.83c-10.11-4.16-14.93-15.73-10.76-25.84.01-.03.02-.06.04-.09l-29.25-29.26-77.25,77.23c-6.48,6.49-6.48,17.01,0,23.5l112.65,112.65c6.49,6.48,17.01,6.48,23.5,0l112.13-112.13c6.48-6.49,6.48-17.01,0-23.5"/>
</svg>