<?xml version="1.0" encoding="UTF-8"?>
<svg id="Layer_1" data-name="Layer 1" xmlns="http://www.w3.org/2000/svg" viewBox="0 0 500 500">
  <defs>
    <style>
      .cls-1 {
        fill: #fef200;
      }

      .cls-2 {
        fill: #191919;
      }
    </style>
  </defs>
  <circle class="cls-1" cx="250" cy="250" r="250"/>
  <path class="cls-2" d="M364.99,342.94h-47.77l.02-82.52c-.92-18.83-5.65-34.4-27.87-32.94-19.31,1.26-24.64,16.53-25.57,33.51l.02,82.52h-47.77v-154.3h45.24l.84.84v20.55l7.57-10.15c15.43-15.28,39.48-17.79,59.74-11.96,25.28,7.28,32.75,29.23,34.97,53.37l.57,101.08ZM138.49,189.21v154.3h47.77v-154.3h-47.77ZM164.61,168.36c35.77-2.77,31.85-58.99-4.89-55.57s-31.15,58.37,4.89,55.57Z"/>
</svg>