<?xml version="1.0" encoding="UTF-8"?>
<svg id="Layer_1" data-name="Layer 1" xmlns="http://www.w3.org/2000/svg" viewBox="0 0 500 500">
  <defs>
    <style>
      .cls-1 {
        fill: #89bb5a;
        fill-rule: evenodd;
      }
    </style>
  </defs>
  <path class="cls-1" d="M475.7,135.86L250,4.2,24.3,135.86v228.28l34.94,20.38,71.4-28.89c19.67-7.96,32.55-27.06,32.55-48.28v-178.88h34.72v178.88c0,35.37-21.46,67.2-54.25,80.47l-46.51,18.82,152.84,89.16,225.7-131.66v-228.28ZM232.64,197.92c0-38.35,31.09-69.45,69.45-69.45h40.51c35.16,0,63.66,28.5,63.66,63.66v5.79h-34.72v-5.79c0-15.98-12.96-28.94-28.93-28.94h-40.51c-19.18,0-34.72,15.55-34.72,34.72s15.55,34.72,34.72,34.72h34.72c38.36,0,69.45,31.09,69.45,69.45s-31.09,69.45-69.45,69.45h-34.72c-38.35,0-69.45-31.09-69.45-69.45h34.72c0,19.18,15.55,34.72,34.72,34.72h34.72c19.18,0,34.72-15.55,34.72-34.72s-15.55-34.72-34.72-34.72h-34.72c-38.35,0-69.45-31.09-69.45-69.45Z"/>
</svg>