<?xml version="1.0" encoding="UTF-8"?>
<svg id="Layer_1" data-name="Layer 1" xmlns="http://www.w3.org/2000/svg" viewBox="0 0 500 500">
  <defs>
    <style>
      .cls-1 {
        fill: none;
      }

      .cls-2 {
        fill: #c00;
      }
    </style>
  </defs>
  <path class="cls-1" d="M0,0h500v500H0V0Z"/>
  <path class="cls-2" d="M15.39,400.56s6.59-65.05,52.73-141.98c46.16-76.94,124.84-135.16,188.8-140.89,127.25-12.75,241.56,101.33,241.56,101.33,0,0-3.75,2.63-7.72,5.94-124.83-92.3-201.08-48.8-225.06-37.14-109.89,61.33-76.72,212.75-76.72,212.75H15.39ZM377.14,130c-7.03-2.84-14.06-5.47-21.31-7.89l.87-14.53c13.83,3.97,19.33,6.61,21.3,7.7l-.87,14.73.02-.02ZM356.25,176.62c7.03.44,14.3,1.31,21.77,2.86l-.87,13.63c-7.25-1.56-14.5-2.42-21.75-2.66l.87-13.83h-.02ZM274.95,108.02c-6.36,0-12.73.23-19.11.91l-4.19-12.97c7.27-.88,14.3-1.31,21.09-1.31l4.41,13.41h-2.19l-.02-.03ZM285.52,188.92c5.47-2.41,11.88-4.84,19.33-7.03l4.84,14.53c-6.41,1.95-12.77,4.59-19.14,7.66l-5.05-15.16h.02ZM185.73,131.11c-5.72,2.88-11.22,6.17-16.92,9.69l-10.11-15.39c5.94-3.52,11.64-6.56,17.14-9.44l9.89,15.16v-.02ZM230.78,230.02c3.94-5.05,8.56-10.09,13.59-14.72l9.91,14.95c-4.84,5.05-9.22,10.11-12.97,15.62l-10.53-15.87v.02ZM198.91,300.8c1.75-7.91,3.75-16.05,6.59-24.17l15.81,12.53c-2.19,8.56-3.75,17.14-4.61,25.7l-17.81-14.06h.02ZM102.66,196.41c-5.31,5.47-10.34,11.41-14.97,17.34l-16.91-14.5c5.05-5.5,10.53-11,16.25-16.48l15.62,13.63v.02ZM36.25,294.62c-3.5,8.12-8.12,18.91-10.97,26.37l-25.28-9.22c2.19-5.94,6.81-16.94,10.98-26.41l25.28,9.25h-.02ZM195.63,356.61l23.72,8.56c1.31,10.36,3.28,20,5.27,28.59l-26.37-9.45c-1.09-6.59-2.19-16.05-2.63-27.69l.02-.02Z"/>
</svg>