<svg width="53" height="53" viewBox="0 0 53 53" fill="none" xmlns="http://www.w3.org/2000/svg">
<path d="M25.3296 8.48221C25.6402 8.17205 26.0611 7.99783 26.5 7.99783C26.9389 7.99783 27.3599 8.17205 27.6704 8.48221L46.8609 27.6726C47.0137 27.8307 47.1965 27.9568 47.3986 28.0435C47.6007 28.1302 47.8181 28.1758 48.038 28.1776C48.2579 28.1794 48.476 28.1374 48.6795 28.0541C48.883 27.9707 49.0679 27.8476 49.2233 27.692C49.3788 27.5365 49.5017 27.3515 49.5848 27.1479C49.668 26.9443 49.7098 26.7262 49.7078 26.5063C49.7058 26.2864 49.66 26.069 49.5731 25.867C49.4862 25.665 49.3599 25.4823 49.2017 25.3296L30.0135 6.13917C29.5521 5.67777 29.0043 5.31177 28.4015 5.06206C27.7986 4.81235 27.1525 4.68383 26.5 4.68383C25.8475 4.68383 25.2014 4.81235 24.5985 5.06206C23.9957 5.31177 23.448 5.67777 22.9866 6.13917L3.79614 25.3296C3.63803 25.4824 3.51194 25.6653 3.42523 25.8674C3.33853 26.0695 3.29294 26.2868 3.29113 26.5068C3.28933 26.7267 3.33133 26.9447 3.41471 27.1482C3.49808 27.3518 3.62115 27.5366 3.77673 27.6921C3.93232 27.8475 4.1173 27.9704 4.32088 28.0536C4.52447 28.1367 4.74258 28.1786 4.96249 28.1765C5.18241 28.1745 5.39972 28.1287 5.60175 28.0418C5.80377 27.9549 5.98647 27.8287 6.13918 27.6704L25.3296 8.48221Z" fill="white"/>
<path d="M26.5 11.9957L44.5178 30.0135C44.584 30.0797 44.6503 30.1415 44.7188 30.2034V43.8906C44.7188 46.1762 42.8638 48.0312 40.5781 48.0312H33.125C32.6857 48.0312 32.2645 47.8568 31.9539 47.5461C31.6432 47.2355 31.4688 46.8143 31.4688 46.375V36.4375C31.4688 35.9982 31.2943 35.577 30.9836 35.2664C30.673 34.9557 30.2518 34.7812 29.8125 34.7812H23.1875C22.7482 34.7812 22.327 34.9557 22.0164 35.2664C21.7057 35.577 21.5312 35.9982 21.5312 36.4375V46.375C21.5312 46.8143 21.3568 47.2355 21.0461 47.5461C20.7355 47.8568 20.3143 48.0312 19.875 48.0312H12.4219C11.3237 48.0312 10.2705 47.595 9.49401 46.8185C8.71749 46.042 8.28125 44.9888 8.28125 43.8906V30.2034C8.34995 30.1419 8.41697 30.0786 8.48221 30.0135L26.5 11.9957Z" fill="white"/>
</svg>
