<svg width="33" height="35" viewBox="0 0 33 35" fill="none" xmlns="http://www.w3.org/2000/svg">
<path d="M32.801 18.9573C32.5361 26.0266 27.5944 32.1741 20.8157 33.8755C17.9308 34.5997 14.2306 34.5286 11.378 33.6947C4.91314 31.8066 0.268575 25.7688 0.0183105 18.9573H32.802H32.801ZM10.1843 30.205C7.63868 29.0243 5.5212 27.0008 4.04405 24.6098L3.01953 25.2066C4.65799 27.7992 6.93774 29.9975 9.71021 31.3106L10.1843 30.205ZM12.3116 30.7899H11.1404V31.9736H12.3116V30.7899Z" fill="#F17C1C"/>
<path d="M8.06586 16.5901C7.95735 16.5792 7.95148 16.4814 7.92313 16.4023C7.78333 16.015 7.7149 15.5378 7.57413 15.1278C6.61217 12.3257 4.92191 9.85075 2.76142 7.86482L1.99596 8.77973C4.60614 11.0818 6.38244 14.2909 7.04329 17.7352L5.97771 17.7026C4.10952 15.3975 2.13185 12.8385 0.736815 10.2045C0.357507 9.48914 -0.307259 8.42701 0.237263 7.67809C1.05747 6.54976 3.00679 6.27707 4.2894 6.46578C8.758 7.12381 9.66325 13.0668 8.06586 16.5891V16.5901Z" fill="#F17C1C"/>
<path d="M32.2887 17.7737H26.5082C26.7897 15.6031 27.4956 13.5124 28.042 11.4158L26.9931 11.1115C26.4789 12.5323 26.0751 14.0044 25.7388 15.4805C25.5971 16.102 25.513 17.1108 25.3214 17.6473C25.3018 17.7016 25.2754 17.7431 25.2275 17.7737H21.5322C21.6525 17.2027 21.7815 16.5664 21.6055 15.9993C22.5695 16.1771 23.9 16.6484 24.5931 15.6535C25.6723 14.1042 23.2528 11.8249 24.9 9.8251C25.9011 8.60983 28.2933 7.86486 29.1213 9.62255C29.613 10.6649 29.572 12.5985 29.0079 13.6073C28.653 14.2426 27.7449 14.9035 28.2004 15.7295C28.5827 16.4211 29.615 16.265 30.2573 16.3866C30.9514 16.518 31.7491 16.9833 32.1792 17.5505C32.2359 17.6246 32.32 17.6433 32.2887 17.7728V17.7737Z" fill="#F17C1C"/>
<path d="M25.1905 2.39117V4.12911C25.1905 5.95498 22.8639 8.30746 21.0563 8.30746H18.1655V6.56953C18.1655 4.73971 20.4903 2.39117 22.2998 2.39117H25.1905Z" fill="#F17C1C"/>
<path d="M9.75032 17.7737C11.5031 15.8362 12.6362 13.377 12.8972 10.7479L11.726 10.5997C11.508 12.6123 10.7866 14.6911 9.45801 16.2206C9.99178 14.536 10.1228 12.7842 9.78942 11.0413C9.71219 10.6402 9.08555 8.92103 9.10315 8.80445C9.14323 8.54262 9.7337 8.08813 9.96734 7.97154C12.2324 6.84223 15.7479 9.62648 15.7479 12.0758C13.3 12.6073 11.8082 15.3689 12.4583 17.7727H9.75032V17.7737Z" fill="#F17C1C"/>
<path d="M16.4087 13.1141V14.2237H17.5799V13.1141C18.8928 13.2821 20.0297 14.3432 20.3611 15.6277L19.1929 16.0031L19.4862 17.1058L20.5068 16.8123L20.326 17.7005L20.1099 17.7776L13.6998 17.7391C13.4671 17.2747 13.471 16.7313 13.4838 16.2205L14.5014 16.511L14.8055 15.4528L13.8484 15.1109C14.2248 14.0686 15.3197 13.2505 16.4097 13.1151L16.4087 13.1141ZM17.5799 15.4073H16.4087V16.591H17.5799V15.4073Z" fill="#F17C1C"/>
<path d="M4.48105 17.7737H0.0173472C-0.135158 16.6029 0.742724 16.0457 1.67437 15.6396C1.95983 15.5151 2.48773 15.2009 2.72725 15.443L4.48105 17.7747V17.7737Z" fill="#F17C1C"/>
<path d="M6.21828 0.633477C7.86456 0.363746 8.10602 2.73402 6.69535 2.96423C5.04908 3.23396 4.80761 0.863686 6.21828 0.633477Z" fill="#F17C1C"/>
<path d="M13.8289 2.40893C15.4752 2.1392 15.7166 4.50947 14.3059 4.73968C12.6597 5.00941 12.4182 2.63914 13.8289 2.40893Z" fill="#F17C1C"/>
</svg>
