<svg width="30" height="34" viewBox="0 0 30 34" fill="none" xmlns="http://www.w3.org/2000/svg">
<path d="M18.7819 15.5033C17.3409 15.6643 15.9508 14.8366 15.5275 13.4573C16.0847 12.8043 16.5461 12.0088 16.639 11.1361C16.6928 10.6334 16.5833 9.99406 15.9244 10.201C15.4776 10.3416 15.6086 10.7974 15.5294 11.1234C15.2098 12.4314 14.3211 13.3783 12.9564 13.5959C12.5732 13.6574 11.8908 13.47 11.7716 14.0225C11.4988 15.2846 14.0318 14.5428 14.6095 14.1885C14.9693 15.064 15.7191 15.8069 16.5716 16.2129C16.7837 16.3135 17.5296 16.5995 17.7212 16.5995H18.7819L18.7721 29.1943C18.2784 33.3067 13.107 34.9886 10.3638 31.7625C9.65017 30.9231 9.11934 29.8884 9.52504 28.8029C10.005 27.5193 11.3659 26.3304 12.7511 26.1791C13.4677 26.101 13.8773 26.4417 14.5342 26.5754C15.0543 26.6818 16.1864 26.9356 16.2558 26.1801C16.3174 25.5066 15.5255 25.6393 15.1677 25.5778C13.5439 25.2986 12.1743 24.3206 11.6816 22.7012C11.3443 21.5904 11.6445 21.7085 11.8664 20.7646C12.0013 20.1906 12.2496 18.4238 11.2261 18.664C10.6551 18.7977 10.922 19.7357 10.8595 20.1974C10.7363 21.0974 10.0598 22.0023 9.23274 22.3732C8.74981 22.5899 8.10264 22.5187 8.16423 23.2137C8.25808 24.2679 10.138 23.1453 10.5848 22.8837C10.8096 23.7671 11.3023 24.5734 11.9749 25.1854C10.794 25.6491 9.74793 26.2845 9.03233 27.3612C8.75372 27.7809 8.61881 28.2631 8.33824 28.6409C6.15331 29.0645 3.82076 27.5018 3.17457 25.4255C2.88813 24.5051 2.87151 23.321 3.19217 22.4064C3.25376 22.2297 3.63209 21.6011 3.55974 21.4976C1.7639 21.073 0.378643 19.519 0.0687445 17.7122C-0.297854 15.5736 0.83127 13.554 2.75225 12.614C3.67901 13.1996 4.95086 13.8536 6.08976 13.7541C6.88651 13.6838 6.79461 12.7457 6.2276 12.6589C5.56186 12.5574 5.12097 12.6052 4.44056 12.3241C4.01042 12.1464 3.02891 11.5539 2.97416 11.0854C2.61832 8.03792 5.07209 5.47365 8.13392 5.71475C8.49368 5.74306 8.90427 5.91388 9.23176 5.93438C9.46247 5.94902 9.26891 5.85629 9.26891 5.8231V4.36185C9.26891 4.21738 9.50744 3.53898 9.57881 3.35645C10.8878 0.0122599 15.3867 -0.64955 17.6821 2.0992C18.122 2.62533 18.7819 3.90405 18.7819 4.58148V15.5052V15.5033Z" fill="#F17C1C"/>
<path d="M26.2096 13.0923C27.0601 12.941 27.02 11.9785 26.9819 11.3138C24.3609 10.404 25.317 6.55521 28.0797 7.06084C30.3575 7.47862 30.3644 10.8628 28.0866 11.3489C28.1247 12.3114 28.0944 13.2211 27.2233 13.8117C27.0972 13.8966 26.4726 14.1894 26.3572 14.1894H19.8806V13.0933H26.2106L26.2096 13.0923Z" fill="#F17C1C"/>
<path d="M26.4295 23.0292C26.8655 23.0965 27.5264 23.5885 27.7708 23.9545C28.1833 24.5734 28.0592 25.1688 28.0846 25.8707C30.2353 26.3441 30.4396 29.453 28.2958 30.0797C25.4764 30.9045 24.2348 26.8604 26.9819 25.9038C26.9467 25.3836 27.1266 24.7198 26.6515 24.3421C26.5899 24.2933 26.2545 24.1244 26.2106 24.1244H19.8806V23.0282H26.4295V23.0292Z" fill="#F17C1C"/>
<path d="M19.8796 19.1569V18.0607H25.4412C25.8332 16.6121 27.5215 15.9249 28.7875 16.8015C30.7231 18.1417 29.5403 21.072 27.1666 20.7577C26.3064 20.6435 25.7032 19.9134 25.404 19.1569H19.8796Z" fill="#F17C1C"/>
<path d="M19.8799 9.07358V7.9774H21.9651C21.9954 7.9774 22.3073 7.82903 22.364 7.79194C22.9495 7.41125 22.8058 6.76701 22.7941 6.16279C20.6434 5.5781 20.8106 2.25441 23.0082 1.93229C25.8833 1.51158 26.6292 5.42582 23.9369 6.22136C23.8919 7.02861 23.9819 7.67383 23.4217 8.33759C23.1578 8.64995 22.4402 9.07358 22.0374 9.07358H19.8789H19.8799Z" fill="#F17C1C"/>
<path d="M21.2336 26.6829C22.5583 26.8595 23.182 28.3257 23.0383 29.5204C24.9104 30.029 25.3522 32.6186 23.5886 33.5635C21.13 34.8823 19.0203 31.4668 21.2747 29.865C21.8446 29.4599 22.0411 29.7586 21.9209 28.7727C21.873 28.3764 21.5279 27.7781 21.087 27.7781H19.8796V26.6819C20.3059 26.7219 20.8201 26.6262 21.2336 26.6819V26.6829Z" fill="#F17C1C"/>
</svg>
