<svg width="38" height="37" viewBox="0 0 38 37" fill="none" xmlns="http://www.w3.org/2000/svg">
<path d="M0 25.5626L5.06786 6.68349L15.8136 0L19.7866 4.90403L15.9827 9.92617L15.7989 9.85491C15.3805 9.59136 13.8946 7.86558 13.5984 7.80896C13.4596 7.78261 13.3168 7.80994 13.179 7.82751C12.6794 7.88803 11.0596 8.28628 10.5962 8.46784C10.4026 8.54398 10.2042 8.67868 10.2931 8.90514L11.7253 11.3562L11.7341 20.4156C11.6921 20.7279 11.1143 21.131 10.8865 21.3975C10.5835 21.7509 10.2227 22.2136 9.96856 22.6021C9.80041 22.8598 9.31063 23.5099 9.52473 23.7793L9.71829 23.8857C9.80823 23.8993 9.8708 23.8661 9.94021 23.8144C10.037 23.7422 10.6157 22.7006 10.7897 22.4693C14.8321 17.1065 21.8278 18.4877 24.4556 24.3161C24.7058 24.5885 25.0519 24.4518 24.9903 24.0828C24.9668 23.9413 24.6012 23.2795 24.5015 23.1018C24.2835 22.7124 23.9863 22.2673 23.7126 21.9149C23.5122 21.6572 22.6744 20.8655 22.6157 20.7377C22.5688 20.6362 22.5815 20.6205 22.6187 20.5249C22.7643 20.151 23.5288 19.1974 23.827 18.8743C27.8723 14.4895 34.8895 15.9361 36.8261 21.5596C37.2005 22.647 37.4732 24.2136 37.5397 25.342V27.6066L37.3833 29.2416C37.1458 30.903 36.7958 32.5556 36.2014 34.1281C36.0655 34.4863 35.4535 35.97 35.2297 36.1555C35.0811 36.2785 34.4398 36.2414 34.2012 36.2326C30.9292 36.1116 27.6024 34.8328 24.7459 33.3394C20.7084 34.8465 16.3024 35.9622 12.0088 34.8943C9.40057 34.2452 6.48147 32.9841 4.21442 31.556C3.19576 30.9137 0.782078 29.2524 0.331406 28.1923C0.160326 27.7901 0.136864 27.3606 0 26.9517V25.5636V25.5626ZM35.5415 28.8326C35.7155 28.6579 35.6168 28.4002 35.3919 28.3241C34.3919 28.0146 33.3928 27.6671 32.4308 27.2562C31.4336 26.8306 30.4932 26.2752 29.5097 25.8496C29.1715 25.8281 29.1676 26.242 29.4032 26.4011C31.0954 27.2835 32.9323 28.288 34.7888 28.7789C34.997 28.8336 35.3695 29.0054 35.5415 28.8326ZM16.9183 31.352C16.8108 31.2495 15.1371 31.0084 14.8086 30.9332C12.5787 30.4237 10.4671 29.6165 8.42884 28.5954C8.14925 28.4559 7.24693 27.8468 7.01719 27.9102C6.8334 27.961 6.77084 28.1777 6.85198 28.3387C6.91748 28.4676 7.92049 28.9927 8.13556 29.1069C10.1523 30.1758 14.0647 31.7229 16.3132 31.844C16.6338 31.8615 17.3396 31.7542 16.9173 31.351L16.9183 31.352Z" fill="#F17C1C"/>
<path d="M35.6805 7.82947C36.1595 7.80116 36.5036 8.43661 36.179 8.82804L33.65 11.3484C32.9813 11.7701 32.3723 11.0448 32.9227 10.3313C33.3039 9.83637 34.6227 8.53032 35.1193 8.13597C35.263 8.02176 35.4967 7.8402 35.6805 7.82947Z" fill="#F17C1C"/>
<path d="M23.3635 7.82947C23.5042 7.82166 23.6538 7.8978 23.7584 7.9876L26.3246 10.5431C26.656 11.117 25.9932 11.7379 25.4438 11.3474L22.9147 8.82707C22.6117 8.44638 22.8942 7.85485 23.3625 7.82947H23.3635Z" fill="#F17C1C"/>
<path d="M29.3797 6.87384C29.8108 6.77623 30.0855 6.98024 30.1354 7.40485C30.2136 8.06373 30.2283 10.3527 30.1295 10.9823C30.0308 11.6119 29.0454 11.6578 28.9593 10.915C28.8811 10.2473 28.8655 7.97393 28.9652 7.3375C28.9994 7.11885 29.1588 6.9246 29.3797 6.87384Z" fill="#F17C1C"/>
</svg>
