<svg width="227" height="57" viewBox="0 0 227 57" fill="none" xmlns="http://www.w3.org/2000/svg">
<path d="M26.1728 11.1485V4.02351H3.47278V52.9765H26.1728V45.8515C21.5227 45.8515 17.063 44.0233 13.7749 40.7692C10.4868 37.5152 8.63957 33.1019 8.63957 28.5C8.63957 23.8981 10.4868 19.4846 13.7749 16.2306C17.063 12.9766 21.5227 11.1485 26.1728 11.1485Z" fill="white"/>
<path d="M26.1728 11.1485V45.8515C30.8229 45.8515 35.2826 44.0233 38.5707 40.7693C41.8588 37.5152 43.706 33.1019 43.706 28.5C43.706 23.8981 41.8588 19.4846 38.5707 16.2307C35.2826 12.9766 30.8229 11.1485 26.1728 11.1485Z" fill="white"/>
<path d="M56.4451 15.5074H61.5272V39.7324H56.4451V15.5074Z" fill="white"/>
<path d="M64.3731 31.4338C64.3731 29.691 64.8961 27.9873 65.8756 26.5389C66.855 25.0904 68.247 23.9623 69.8751 23.2976C71.5033 22.633 73.294 22.4617 75.0206 22.8054C76.7472 23.149 78.3317 23.9923 79.5735 25.2282C80.8152 26.4643 81.6583 28.0371 81.9958 29.7478C82.333 31.4585 82.1498 33.2297 81.4688 34.8371C80.7878 36.4443 79.64 37.8155 78.1708 38.7764C76.7016 39.7376 74.9771 40.2452 73.216 40.2353C72.0479 40.2444 70.8897 40.0226 69.8094 39.5826C68.7291 39.1429 67.7483 38.4941 66.9247 37.6745C66.101 36.8547 65.4512 35.8803 65.0129 34.8087C64.5749 33.7371 64.3574 32.5898 64.3731 31.4338ZM77.1122 31.4338C77.0922 30.6824 76.8488 29.9535 76.4124 29.3384C75.976 28.7231 75.3662 28.2489 74.6588 27.9749C73.9515 27.701 73.1783 27.6395 72.436 27.7982C71.6935 27.9568 71.0149 28.3285 70.4848 28.867C69.9548 29.4053 69.5968 30.0863 69.4559 30.8249C69.3149 31.5636 69.3971 32.3269 69.6922 33.0194C69.9873 33.712 70.4821 34.3033 71.115 34.7189C71.7477 35.1346 72.4902 35.3564 73.2498 35.3568C73.767 35.3668 74.2806 35.2711 74.7587 35.0756C75.2368 34.8803 75.6689 34.5894 76.0282 34.2213C76.3875 33.8531 76.6662 33.4154 76.8469 32.9359C77.0277 32.4563 77.1065 31.945 77.0783 31.4338H77.1122Z" fill="white"/>
<path d="M102.167 23.1353V38.9109C102.167 44.4768 97.7624 46.8406 93.3071 46.8406C91.7356 46.9682 90.1593 46.6592 88.7558 45.9484C87.3521 45.2376 86.1768 44.153 85.3621 42.8171L89.648 40.3694C89.9953 41.0625 90.5477 41.6341 91.2318 42.0085C91.9158 42.3829 92.6988 42.5421 93.4765 42.465C93.972 42.5254 94.4748 42.4767 94.949 42.3225C95.4233 42.1681 95.8572 41.9121 96.2197 41.5724C96.5824 41.2328 96.8646 40.8182 97.0464 40.358C97.2281 39.898 97.3049 39.4038 97.2712 38.9109V37.3853C96.6798 38.0949 95.9293 38.6582 95.0796 39.0308C94.2297 39.4033 93.3039 39.5746 92.3754 39.5312C90.129 39.5312 87.9747 38.648 86.3862 37.076C84.7977 35.5041 83.9053 33.372 83.9053 31.1488C83.9053 28.9257 84.7977 26.7937 86.3862 25.2217C87.9747 23.6496 90.129 22.7665 92.3754 22.7665C93.3039 22.7231 94.2297 22.8944 95.0796 23.2669C95.9293 23.6394 96.6798 24.2027 97.2712 24.9124V23.2359L102.167 23.1353ZM97.2712 31.0985C97.3049 30.2965 97.0955 29.5027 96.6698 28.8194C96.2441 28.136 95.6217 27.5944 94.8822 27.2639C94.143 26.9335 93.3209 26.8296 92.5213 26.9654C91.7219 27.1012 90.9816 27.4705 90.396 28.0259C89.8103 28.5813 89.406 29.2975 89.2349 30.0823C89.0638 30.867 89.1337 31.6843 89.4358 32.4293C89.738 33.1743 90.2584 33.8129 90.9301 34.2629C91.6019 34.7128 92.3944 34.9537 93.2055 34.9544C93.7349 34.9921 94.2663 34.9195 94.7654 34.7415C95.2646 34.5633 95.7206 34.2835 96.1036 33.92C96.4868 33.5567 96.7887 33.1178 96.9898 32.6318C97.1909 32.1458 97.2868 31.6234 97.2712 31.0985Z" fill="white"/>
<path d="M105.03 31.4338C105.03 29.6923 105.552 27.99 106.53 26.5422C107.508 25.0944 108.898 23.9663 110.524 23.3008C112.15 22.635 113.939 22.4617 115.665 22.8027C117.39 23.1437 118.975 23.9836 120.218 25.2161C121.461 26.4488 122.307 28.0187 122.648 29.727C122.99 31.4355 122.811 33.2057 122.135 34.8136C121.46 36.4217 120.317 37.795 118.852 38.7602C117.387 39.7253 115.666 40.2386 113.907 40.2353C112.736 40.2465 111.575 40.0264 110.492 39.5878C109.409 39.1493 108.425 38.5012 107.598 37.6814C106.772 36.8616 106.119 35.8867 105.677 34.8139C105.236 33.7411 105.016 32.5919 105.03 31.4338ZM117.769 31.4338C117.749 30.6818 117.505 29.9522 117.068 29.3366C116.631 28.7211 116.02 28.2469 115.312 27.9734C114.603 27.7 113.829 27.6395 113.086 27.7996C112.344 27.9595 111.665 28.333 111.136 28.873C110.606 29.413 110.25 30.0957 110.111 30.8353C109.972 31.575 110.056 32.3388 110.354 33.031C110.651 33.7234 111.149 34.3133 111.784 34.7271C112.419 35.1407 113.163 35.3598 113.923 35.3568C114.441 35.3668 114.954 35.2711 115.432 35.0756C115.91 34.8803 116.343 34.5894 116.702 34.2213C117.061 33.8531 117.34 33.4154 117.521 32.9359C117.701 32.4563 117.78 31.945 117.752 31.4338H117.769Z" fill="white"/>
<path d="M125.138 18.6926C125.138 18.1025 125.315 17.5255 125.646 17.0348C125.978 16.544 126.449 16.1615 126.999 15.9357C127.55 15.7098 128.157 15.6507 128.742 15.7659C129.326 15.881 129.864 16.1652 130.286 16.5826C130.707 16.9999 130.994 17.5317 131.111 18.1104C131.227 18.6893 131.167 19.2893 130.939 19.8347C130.711 20.3798 130.324 20.8459 129.829 21.1738C129.333 21.5017 128.75 21.6768 128.153 21.6768C127.356 21.668 126.595 21.3509 126.031 20.7931C125.467 20.2353 125.147 19.4814 125.138 18.6926ZM125.629 23.1353H130.711V39.7324H125.629V23.1353Z" fill="white"/>
<path d="M152.463 31.4338C152.52 32.5376 152.355 33.6417 151.98 34.6825C151.604 35.7232 151.024 36.6802 150.273 37.4981C149.522 38.3162 148.615 38.9791 147.604 39.4489C146.593 39.9186 145.498 40.1858 144.382 40.2353C143.435 40.2977 142.487 40.1476 141.607 39.7964C140.727 39.445 139.938 38.9017 139.3 38.2068V46.4047H134.218V23.1353H139.3V24.6944C139.939 24.0015 140.728 23.4607 141.608 23.1123C142.488 22.7638 143.437 22.6169 144.382 22.6826C145.493 22.7321 146.584 22.9978 147.591 23.4644C148.599 23.9309 149.504 24.5895 150.254 25.4021C151.004 26.2146 151.586 27.1655 151.965 28.2006C152.343 29.2355 152.513 30.3341 152.463 31.4338ZM147.381 31.4338C147.361 30.6551 147.109 29.8997 146.657 29.2621C146.205 28.6246 145.573 28.133 144.84 27.8495C144.107 27.5659 143.305 27.5028 142.536 27.668C141.767 27.8331 141.064 28.2194 140.516 28.7781C139.968 29.3369 139.598 30.0434 139.454 30.8092C139.31 31.5748 139.397 32.3656 139.705 33.0825C140.013 33.7992 140.528 34.4101 141.185 34.8386C141.842 35.2671 142.613 35.4939 143.4 35.4909C143.939 35.5135 144.477 35.4232 144.978 35.2257C145.479 35.0282 145.933 34.7281 146.309 34.345C146.685 33.9619 146.974 33.5044 147.159 33.0028C147.344 32.5011 147.419 31.9664 147.381 31.4338Z" fill="white"/>
<path d="M167.929 34.7532C167.929 38.5756 164.541 40.2018 160.95 40.2018C159.485 40.3322 158.014 40.0249 156.728 39.3196C155.441 38.6143 154.398 37.5434 153.733 36.2453L158.104 33.7976C158.277 34.3958 158.652 34.917 159.167 35.2741C159.682 35.6312 160.306 35.8024 160.933 35.7591C162.136 35.7591 162.745 35.3903 162.745 34.7197C162.745 32.8924 154.496 33.8647 154.496 28.1144C154.496 24.4932 157.579 22.6826 161.068 22.6826C162.395 22.6238 163.713 22.9217 164.882 23.5445C166.051 24.1673 167.028 25.0919 167.709 26.22L163.338 28.5C163.145 28.0675 162.83 27.6997 162.43 27.4408C162.03 27.182 161.563 27.0433 161.085 27.0415C160.204 27.0415 159.679 27.3768 159.679 27.9635C159.679 29.8747 167.929 28.6174 167.929 34.7532Z" fill="white"/>
<path d="M186.343 23.1353V39.7324H181.261V38.1732C180.684 38.8634 179.95 39.4095 179.122 39.7677C178.292 40.126 177.389 40.2861 176.484 40.2353C173.096 40.2353 170.199 37.8379 170.199 33.3618V23.1353H175.281V32.6074C175.241 33.0033 175.288 33.4032 175.42 33.7794C175.552 34.1554 175.764 34.4987 176.042 34.7858C176.321 35.0726 176.66 35.2962 177.035 35.4413C177.409 35.5861 177.81 35.6488 178.212 35.625C180.041 35.625 181.329 34.5521 181.329 32.2721V23.1353H186.343Z" fill="white"/>
<path d="M215.142 29.5394V39.7324H210.06V29.9753C210.06 28.2988 209.264 27.2594 207.654 27.2594C206.045 27.2594 205.028 28.4162 205.028 30.3776V39.7324H199.946V29.9753C199.946 28.2988 199.15 27.2594 197.541 27.2594C195.931 27.2594 194.915 28.4162 194.915 30.3776V39.7324H189.833V23.1353H194.915V24.6609C195.442 23.9869 196.128 23.4532 196.916 23.1078C197.702 22.7624 198.564 22.6163 199.421 22.6826C200.28 22.6382 201.137 22.8159 201.906 23.198C202.675 23.5801 203.331 24.1536 203.809 24.8621C204.368 24.1217 205.106 23.5336 205.957 23.1526C206.805 22.7713 207.741 22.6097 208.671 22.6826C212.635 22.6826 215.142 25.3985 215.142 29.5394Z" fill="white"/>
<path d="M219.411 23.0347C221.469 23.0347 223.138 21.3834 223.138 19.3465C223.138 17.3096 221.469 15.6582 219.411 15.6582C217.352 15.6582 215.684 17.3096 215.684 19.3465C215.684 21.3834 217.352 23.0347 219.411 23.0347Z" fill="white"/>
</svg>
